<svg width="201" height="130" viewBox="0 0 201 130" fill="none" xmlns="http://www.w3.org/2000/svg">
<rect x="72.6206" y="1" width="55.7586" height="55.7586" rx="1" fill="black" stroke="white" stroke-width="2"/>
<path d="M101.533 13.4727L120.533 32.6729L121.055 33.2002L120.533 33.7275L115.783 38.5273L115.25 39.0664L114.717 38.5273L101 24.666L87.2832 38.5273L86.75 39.0664L86.2168 38.5273L81.4668 33.7275L80.9453 33.2002L81.4668 32.6729L100.467 13.4727L101 12.9336L101.533 13.4727Z" fill="white" stroke="white" stroke-width="1.5"/>
<rect x="72.6206" y="72.6207" width="55.7586" height="55.7586" rx="1" fill="black" stroke="white" stroke-width="2"/>
<path d="M100.467 115.527L81.4668 96.3271L80.9453 95.7998L81.4668 95.2725L86.2168 90.4727L86.75 89.9336L87.2832 90.4727L101 104.334L114.717 90.4727L115.25 89.9336L115.783 90.4727L120.533 95.2725L121.055 95.7998L120.533 96.3271L101.533 115.527L101 116.066L100.467 115.527Z" fill="white" stroke="white" stroke-width="1.5"/>
<rect x="1" y="73" width="55.7586" height="55.7586" rx="1" fill="black" stroke="white" stroke-width="2"/>
<path d="M14.4727 100.846L33.6729 81.8461L34.2002 81.3246L34.7275 81.8461L39.5273 86.5961L40.0664 87.1293L39.5273 87.6625L25.666 101.379L39.5273 115.096L40.0664 115.629L39.5273 116.163L34.7275 120.913L34.2002 121.434L33.6729 120.913L14.4727 101.913L13.9336 101.379L14.4727 100.846Z" fill="white" stroke="white" stroke-width="1.5"/>
<rect x="144.241" y="72.6207" width="55.7586" height="55.7586" rx="1" fill="black" stroke="white" stroke-width="2"/>
<path d="M186.527 101.533L167.327 120.533L166.8 121.055L166.272 120.533L161.473 115.783L160.934 115.25L161.473 114.717L175.334 101L161.473 87.2832L160.934 86.75L161.473 86.2168L166.272 81.4668L166.8 80.9453L167.327 81.4668L186.527 100.467L187.066 101L186.527 101.533Z" fill="white" stroke="white" stroke-width="1.5"/>
</svg>
