<svg width="201" height="130" viewBox="0 0 201 130" fill="none" xmlns="http://www.w3.org/2000/svg">
<rect x="72.6206" y="1" width="55.7586" height="55.7586" rx="1" fill="black" stroke="white" stroke-width="2"/>
<path d="M90.2407 46C89.6327 46 89.1847 45.872 88.8967 45.616C88.6407 45.328 88.5127 44.88 88.5127 44.272V38.56C88.5127 37.952 88.6407 37.52 88.8967 37.264C89.1847 36.976 89.6327 36.832 90.2407 36.832H94.9927V20.704H90.2407C89.6327 20.704 89.1847 20.576 88.8967 20.32C88.6407 20.032 88.5127 19.584 88.5127 18.976V13.168C88.5127 12.56 88.6407 12.128 88.8967 11.872C89.1847 11.584 89.6327 11.44 90.2407 11.44H110.689C111.297 11.44 111.729 11.584 111.985 11.872C112.273 12.128 112.417 12.56 112.417 13.168V18.976C112.417 19.584 112.273 20.032 111.985 20.32C111.729 20.576 111.297 20.704 110.689 20.704H106.033V36.832H110.689C111.297 36.832 111.729 36.976 111.985 37.264C112.273 37.52 112.417 37.952 112.417 38.56V44.272C112.417 44.88 112.273 45.328 111.985 45.616C111.729 45.872 111.297 46 110.689 46H90.2407Z" fill="white"/>
<rect x="72.6206" y="72.6207" width="55.7586" height="55.7586" rx="1" fill="black" stroke="white" stroke-width="2"/>
<path d="M95.0737 117.621H87.6337C87.0257 117.621 86.5777 117.493 86.2897 117.237C86.0337 116.949 85.9057 116.501 85.9057 115.893V84.7887C85.9057 84.1807 86.0337 83.7487 86.2897 83.4927C86.5777 83.2047 87.0257 83.0607 87.6337 83.0607H95.0737C95.6817 83.0607 96.1137 83.2047 96.3697 83.4927C96.6577 83.7487 96.8017 84.1807 96.8017 84.7887V95.8287H98.7217L103.666 84.6447C103.89 84.0687 104.194 83.6687 104.578 83.4447C104.962 83.1887 105.458 83.0607 106.066 83.0607H113.458C114.002 83.0607 114.37 83.2047 114.562 83.4927C114.754 83.7487 114.738 84.1327 114.514 84.6447L109.618 95.8287C111.41 95.9247 112.834 96.5647 113.89 97.7487C114.978 98.9007 115.522 100.437 115.522 102.357V115.893C115.522 116.501 115.378 116.949 115.09 117.237C114.834 117.493 114.402 117.621 113.794 117.621H106.402C105.794 117.621 105.346 117.493 105.058 117.237C104.802 116.949 104.674 116.501 104.674 115.893V106.533C104.674 106.021 104.546 105.621 104.29 105.333C104.034 105.045 103.65 104.901 103.138 104.901H96.8017V115.893C96.8017 116.501 96.6577 116.949 96.3697 117.237C96.1137 117.493 95.6817 117.621 95.0737 117.621Z" fill="white"/>
<rect x="1" y="72.6207" width="55.7586" height="55.7586" rx="1" fill="black" stroke="white" stroke-width="2"/>
<path d="M42.3079 108.549C42.3079 110.021 42.0999 111.365 41.6839 112.581C41.2679 113.765 40.5319 114.789 39.4759 115.653C38.4519 116.485 37.0279 117.141 35.2039 117.621C33.3799 118.101 31.0599 118.341 28.2439 118.341C25.4599 118.341 23.1559 118.101 21.3319 117.621C19.5399 117.141 18.1159 116.485 17.0599 115.653C16.0359 114.789 15.3159 113.765 14.8999 112.581C14.5159 111.365 14.3239 110.021 14.3239 108.549V100.773C14.3239 100.165 14.4519 99.7327 14.7079 99.4767C14.9959 99.1887 15.4439 99.0447 16.0519 99.0447H23.0119C23.6199 99.0447 24.0519 99.1887 24.3079 99.4767C24.5959 99.7327 24.7399 100.165 24.7399 100.773V106.629C24.7399 107.269 24.9319 107.813 25.3159 108.261C25.7319 108.677 26.6759 108.885 28.1479 108.885C29.5239 108.885 30.3879 108.677 30.7399 108.261C31.1239 107.813 31.3159 107.269 31.3159 106.629V84.7887C31.3159 84.1807 31.4439 83.7487 31.6999 83.4927C31.9879 83.2047 32.4359 83.0607 33.0439 83.0607H40.5799C41.1879 83.0607 41.6199 83.2047 41.8759 83.4927C42.1639 83.7487 42.3079 84.1807 42.3079 84.7887V108.549Z" fill="white"/>
<rect x="144.241" y="72.6207" width="55.7586" height="55.7586" rx="1" fill="black" stroke="white" stroke-width="2"/>
<path d="M184.905 117.621H160.473C159.865 117.621 159.417 117.493 159.129 117.237C158.873 116.949 158.745 116.501 158.745 115.893V84.7887C158.745 84.1807 158.873 83.7487 159.129 83.4927C159.417 83.2047 159.865 83.0607 160.473 83.0607H167.913C168.521 83.0607 168.953 83.2047 169.209 83.4927C169.497 83.7487 169.641 84.1807 169.641 84.7887V108.549H176.217V100.773C176.217 100.165 176.345 99.7327 176.601 99.4767C176.889 99.1887 177.337 99.0447 177.945 99.0447H184.905C185.513 99.0447 185.945 99.1887 186.201 99.4767C186.489 99.7327 186.633 100.165 186.633 100.773V115.893C186.633 116.501 186.489 116.949 186.201 117.237C185.945 117.493 185.513 117.621 184.905 117.621Z" fill="white"/>
</svg>
