<svg width="201" height="130" viewBox="0 0 201 130" fill="none" xmlns="http://www.w3.org/2000/svg">
<rect x="72.6206" y="1" width="55.7586" height="55.7586" rx="1" fill="black" stroke="white" stroke-width="2"/>
<path d="M104.382 46H96.6059C95.9979 46 95.5499 45.872 95.2619 45.616C95.0059 45.328 94.8779 44.88 94.8779 44.272V20.704H87.8219C87.2139 20.704 86.7659 20.576 86.4779 20.32C86.2219 20.032 86.0939 19.584 86.0939 18.976V13.168C86.0939 12.56 86.2219 12.128 86.4779 11.872C86.7659 11.584 87.2139 11.44 87.8219 11.44H113.166C113.774 11.44 114.206 11.584 114.462 11.872C114.75 12.128 114.894 12.56 114.894 13.168V18.976C114.894 19.584 114.75 20.032 114.462 20.32C114.206 20.576 113.774 20.704 113.166 20.704H106.11V44.272C106.11 44.88 105.966 45.328 105.678 45.616C105.422 45.872 104.99 46 104.382 46Z" fill="white"/>
<rect x="72.6206" y="72.6207" width="55.7586" height="55.7586" rx="1" fill="black" stroke="white" stroke-width="2"/>
<path d="M113.22 117.621H98.0997C94.0997 117.621 91.1237 116.821 89.1717 115.221C87.2517 113.621 86.2917 111.157 86.2917 107.829V92.8527C86.2917 89.5247 87.2517 87.0607 89.1717 85.4607C91.1237 83.8607 94.0997 83.0607 98.0997 83.0607H110.1C110.708 83.0607 111.14 83.2047 111.396 83.4927C111.684 83.7487 111.828 84.1807 111.828 84.7887V90.5967C111.828 91.2047 111.684 91.6527 111.396 91.9407C111.14 92.1967 110.708 92.3247 110.1 92.3247H100.116C99.1237 92.3247 98.3877 92.5327 97.9077 92.9487C97.4277 93.3327 97.1877 93.9247 97.1877 94.7247V106.197C97.1877 106.997 97.3637 107.589 97.7157 107.973C98.0997 108.357 98.6597 108.549 99.3957 108.549H104.052V101.061C104.052 100.453 104.18 100.021 104.436 99.7647C104.724 99.4767 105.172 99.3327 105.78 99.3327H113.22C113.828 99.3327 114.26 99.4767 114.516 99.7647C114.804 100.021 114.948 100.453 114.948 101.061V115.893C114.948 116.501 114.804 116.949 114.516 117.237C114.26 117.493 113.828 117.621 113.22 117.621Z" fill="white"/>
<rect x="1" y="72.6207" width="55.7586" height="55.7586" rx="1" fill="black" stroke="white" stroke-width="2"/>
<path d="M26.5234 117.621H19.0834C18.4754 117.621 18.0274 117.493 17.7394 117.237C17.4834 116.949 17.3554 116.501 17.3554 115.893V84.7887C17.3554 84.1807 17.4834 83.7487 17.7394 83.4927C18.0274 83.2047 18.4754 83.0607 19.0834 83.0607H40.4914C41.0994 83.0607 41.5314 83.2047 41.7874 83.4927C42.0754 83.7487 42.2194 84.1807 42.2194 84.7887V90.5007C42.2194 91.1087 42.0754 91.5567 41.7874 91.8447C41.5314 92.1007 41.0994 92.2287 40.4914 92.2287H28.2514V97.2207H36.6034C37.2114 97.2207 37.6434 97.3647 37.8994 97.6527C38.1874 97.9087 38.3314 98.3407 38.3314 98.9487V104.709C38.3314 105.317 38.1874 105.765 37.8994 106.053C37.6434 106.309 37.2114 106.437 36.6034 106.437H28.2514V115.893C28.2514 116.501 28.1074 116.949 27.8194 117.237C27.5634 117.493 27.1314 117.621 26.5234 117.621Z" fill="white"/>
<rect x="144.241" y="72.6207" width="55.7586" height="55.7586" rx="1" fill="black" stroke="white" stroke-width="2"/>
<path d="M166.39 117.621H158.95C158.342 117.621 157.894 117.493 157.606 117.237C157.35 116.949 157.222 116.501 157.222 115.893V84.7887C157.222 84.1807 157.35 83.7487 157.606 83.4927C157.894 83.2047 158.342 83.0607 158.95 83.0607H166.39C166.998 83.0607 167.43 83.2047 167.686 83.4927C167.974 83.7487 168.118 84.1807 168.118 84.7887V95.2047H176.134V84.7887C176.134 84.1807 176.262 83.7487 176.518 83.4927C176.806 83.2047 177.254 83.0607 177.862 83.0607H185.302C185.91 83.0607 186.342 83.2047 186.598 83.4927C186.886 83.7487 187.03 84.1807 187.03 84.7887V115.893C187.03 116.501 186.886 116.949 186.598 117.237C186.342 117.493 185.91 117.621 185.302 117.621H177.862C177.254 117.621 176.806 117.493 176.518 117.237C176.262 116.949 176.134 116.501 176.134 115.893V105.237H168.118V115.893C168.118 116.501 167.974 116.949 167.686 117.237C167.43 117.493 166.998 117.621 166.39 117.621Z" fill="white"/>
</svg>
