<svg width="201" height="130" viewBox="0 0 201 130" fill="none" xmlns="http://www.w3.org/2000/svg">
<rect x="72.6206" y="1" width="55.7586" height="55.7586" rx="1" fill="black" stroke="white" stroke-width="2"/>
<path d="M108.683 11.44H115.835C116.443 11.44 116.875 11.584 117.131 11.872C117.419 12.128 117.563 12.56 117.563 13.168V31.792C117.563 32.816 117.515 33.776 117.419 34.672C117.355 35.536 117.115 36.56 116.699 37.744L114.299 44.272C114.139 44.752 113.899 45.168 113.579 45.52C113.291 45.84 112.891 46 112.379 46H105.995C105.483 46 105.019 45.888 104.603 45.664C104.187 45.44 103.915 45.072 103.787 44.56L101.579 36.736C101.483 36.416 101.355 36.208 101.195 36.112C101.067 35.984 100.907 35.92 100.715 35.92H100.283C100.091 35.92 99.9146 35.984 99.7546 36.112C99.6266 36.208 99.5146 36.416 99.4186 36.736L97.1626 44.56C97.0346 45.04 96.7946 45.408 96.4426 45.664C96.0906 45.888 95.6586 46 95.1466 46H88.8106C88.2986 46 87.8506 45.84 87.4666 45.52C87.1146 45.2 86.8586 44.784 86.6986 44.272L84.2986 37.648C83.8826 36.464 83.6266 35.44 83.5306 34.576C83.4666 33.68 83.4346 32.72 83.4346 31.696V13.168C83.4346 12.56 83.5626 12.128 83.8186 11.872C84.1066 11.584 84.5546 11.44 85.1626 11.44H92.5546C93.1626 11.44 93.5946 11.584 93.8506 11.872C94.1386 12.128 94.2826 12.56 94.2826 13.168V30.832L97.0666 24.784C97.3226 24.24 97.6586 23.856 98.0746 23.632C98.4906 23.408 99.0026 23.296 99.6106 23.296H101.627C102.235 23.296 102.747 23.408 103.163 23.632C103.579 23.856 103.915 24.24 104.171 24.784L106.955 30.832V13.168C106.955 12.56 107.083 12.128 107.339 11.872C107.627 11.584 108.075 11.44 108.683 11.44Z" fill="white"/>
<rect x="72.6206" y="72.6207" width="55.7586" height="55.7586" rx="1" fill="black" stroke="white" stroke-width="2"/>
<path d="M104.235 117.621H89.0665C88.4585 117.621 88.0105 117.493 87.7225 117.237C87.4665 116.949 87.3385 116.501 87.3385 115.893V110.277C87.3385 109.669 87.4665 109.237 87.7225 108.981C88.0105 108.693 88.4585 108.549 89.0665 108.549H101.979C102.395 108.549 102.699 108.421 102.891 108.165C103.115 107.877 103.227 107.541 103.227 107.157C103.227 106.613 103.115 106.213 102.891 105.957C102.699 105.701 102.395 105.557 101.979 105.525L94.7785 104.517C92.5385 104.197 90.7305 103.461 89.3545 102.309C88.0105 101.157 87.3385 99.2367 87.3385 96.5487V91.5087C87.3385 88.7887 88.2185 86.7087 89.9785 85.2687C91.7385 83.7967 94.1705 83.0607 97.2745 83.0607H110.715C111.323 83.0607 111.755 83.2047 112.011 83.4927C112.299 83.7487 112.443 84.1807 112.443 84.7887V90.5007C112.443 91.1087 112.299 91.5567 112.011 91.8447C111.755 92.1007 111.323 92.2287 110.715 92.2287H99.5305C99.1145 92.2287 98.7945 92.3727 98.5705 92.6607C98.3465 92.9167 98.2345 93.2527 98.2345 93.6687C98.2345 94.0847 98.3465 94.4367 98.5705 94.7247C98.7945 95.0127 99.1145 95.1727 99.5305 95.2047L106.683 96.1647C108.923 96.4847 110.731 97.2207 112.107 98.3727C113.483 99.5247 114.171 101.445 114.171 104.133V109.173C114.171 111.893 113.275 113.989 111.483 115.461C109.723 116.901 107.307 117.621 104.235 117.621Z" fill="white"/>
<rect x="1" y="72.6207" width="55.7586" height="55.7586" rx="1" fill="black" stroke="white" stroke-width="2"/>
<path d="M27.1881 93.1407L24.9321 100.437H32.4681L30.2121 93.1407C30.0841 92.8527 29.9401 92.6447 29.7801 92.5167C29.6521 92.3887 29.4921 92.3247 29.3001 92.3247H28.1001C27.9081 92.3247 27.7321 92.3887 27.5721 92.5167C27.4441 92.6447 27.3161 92.8527 27.1881 93.1407ZM24.4521 115.893C24.4521 116.501 24.3081 116.949 24.0201 117.237C23.7641 117.493 23.3321 117.621 22.7241 117.621H15.6681C15.0601 117.621 14.6121 117.493 14.3241 117.237C14.0681 116.949 13.9401 116.501 13.9401 115.893V103.221C13.9401 102.261 14.0841 101.157 14.3721 99.9087C14.6921 98.6607 15.1721 97.2047 15.8121 95.5407L19.9881 84.6447C20.1801 84.1007 20.4681 83.7007 20.8521 83.4447C21.2681 83.1887 21.7961 83.0607 22.4361 83.0607H35.3481C35.9561 83.0607 36.4521 83.1887 36.8361 83.4447C37.2521 83.7007 37.5561 84.1007 37.7481 84.6447L41.9241 95.5407C42.5641 97.2047 43.0281 98.6607 43.3161 99.9087C43.6361 101.157 43.7961 102.261 43.7961 103.221V115.893C43.7961 116.501 43.6521 116.949 43.3641 117.237C43.1081 117.493 42.6761 117.621 42.0681 117.621H34.8201C34.1801 117.621 33.7001 117.493 33.3801 117.237C33.0921 116.949 32.9481 116.501 32.9481 115.893V109.173H24.4521V115.893Z" fill="white"/>
<rect x="144.241" y="72.6207" width="55.7586" height="55.7586" rx="1" fill="black" stroke="white" stroke-width="2"/>
<path d="M175.43 117.621H159.254C158.646 117.621 158.198 117.493 157.91 117.237C157.654 116.949 157.526 116.501 157.526 115.893V84.7887C157.526 84.1807 157.654 83.7487 157.91 83.4927C158.198 83.2047 158.646 83.0607 159.254 83.0607H175.43C179.43 83.0607 182.39 83.8607 184.31 85.4607C186.262 87.0607 187.238 89.5247 187.238 92.8527V107.829C187.238 111.157 186.262 113.621 184.31 115.221C182.39 116.821 179.43 117.621 175.43 117.621ZM168.422 92.2287V108.549H174.134C174.902 108.549 175.462 108.357 175.814 107.973C176.198 107.589 176.39 106.997 176.39 106.197V94.5327C176.39 93.7327 176.198 93.1567 175.814 92.8047C175.462 92.4207 174.902 92.2287 174.134 92.2287H168.422Z" fill="white"/>
</svg>
